Coordinates
version=1
nRows=7
nColumns=40
inDegrees=yes

Units are S.I. units (second, meters, Newtons, ...)
Angles are in degrees.

endheader
time	pelvis_tilt	pelvis_list	pelvis_rotation	pelvis_tx	pelvis_ty	pelvis_tz	hip_flexion_r	hip_adduction_r	hip_rotation_r	knee_angle_r	knee_angle_r_beta	ankle_angle_r	subtalar_angle_r	mtp_angle_r	hip_flexion_l	hip_adduction_l	hip_rotation_l	knee_angle_l	knee_angle_l_beta	ankle_angle_l	subtalar_angle_l	mtp_angle_l	lumbar_extension	lumbar_bending	lumbar_rotation	arm_flex_r	arm_add_r	arm_rot_r	elbow_flex_r	pro_sup_r	wrist_flex_r	wrist_dev_r	arm_flex_l	arm_add_l	arm_rot_l	elbow_flex_l	pro_sup_l	wrist_flex_l	wrist_dev_l
      0.00000000	     -3.89869483	     14.45758075	     77.51879994	      0.53114929	      0.96059528	     -1.02398821	     19.44400554	     -0.42466223	      7.79657160	     22.99954976	      0.40141787	      6.77898512	      0.00000000	      0.00000000	    -29.86210974	      9.67318510	    -14.72704804	     19.43789630	      0.33925529	     12.32302474	      0.00000000	      0.00000000	    -26.83242728	     -8.53898392	      2.10853072	      1.06551583	     -6.25620353	     -0.20325438	    144.51956916	     87.91561448	      0.00000000	      0.00000000	      0.47254894	     -8.16590379	     -3.70470154	    142.48325488	     83.70168697	      0.00000000	      0.00000000
      0.01000000	     -3.33580178	     14.94652799	     77.54213303	      0.53296987	      0.96191025	     -1.02637016	     18.75334766	      0.02903060	      7.97063480	     24.42622671	      0.42631808	      7.07889031	      0.00000000	      0.00000000	    -29.86049859	      8.82029518	    -14.71822255	     21.78464209	      0.38021373	     10.64617059	      0.00000000	      0.00000000	    -27.14244280	     -8.01176394	      2.46379132	      0.96556866	     -6.46796168	     -0.53148340	    144.59233660	     87.90438240	      0.00000000	      0.00000000	      0.03871046	     -7.44640976	     -3.85665359	    142.33846786	     83.71829551	      0.00000000	      0.00000000
      0.02000000	     -2.51229004	     15.69652257	     77.66466007	      0.53494009	      0.96433654	     -1.02938938	     17.44191014	      0.63322798	      8.06699907	     25.80760368	      0.45042766	      7.39451741	      0.00000000	      0.00000000	    -29.85320290	      7.55123535	    -14.79482314	     24.94732882	      0.43541303	      8.02898831	      0.00000000	      0.00000000	    -27.71513378	     -7.19788544	      2.83185049	      0.88002183	     -6.80833145	     -0.94887662	    144.68525545	     87.90731041	      0.00000000	      0.00000000	     -0.48013430	     -6.51823097	     -4.05141877	    142.15604589	     83.76678854	      0.00000000	      0.00000000
      0.03000000	     -1.42199264	     16.61573919	     77.93021576	      0.53649195	      0.96771942	     -1.03182304	     15.40474626	      1.38559671	      7.82644891	     26.10102615	      0.45554884	      7.44279787	      0.00000000	      0.00000000	    -29.84696802	      5.90858619	    -14.91909670	     28.24175117	      0.49291154	      5.87182089	      0.00000000	      0.00000000	    -28.64870597	     -6.08837507	      3.08223422	      0.95831734	     -7.24499348	     -1.27340758	    144.82239263	     87.91942574	      0.00000000	      0.00000000	     -0.82098852	     -5.72986428	     -4.29887132	    142.00048476	     83.94907497	      0.00000000	      0.00000000
      0.04000000	     -0.07558964	     17.66534603	     77.99632313	      0.53836655	      0.97159534	     -1.03408578	     12.92611142	      2.36432409	      7.46090236	     25.96722368	      0.45321355	      7.81551333	      0.00000000	      0.00000000	    -29.83107682	      4.02812850	    -15.22545410	     31.76979630	      0.55448755	      3.02861664	      0.00000000	      0.00000000	    -29.78817211	     -4.83737974	      3.54312366	      1.08205204	     -7.72474206	     -1.58100043	    145.02318449	     87.91529511	      0.00000000	      0.00000000	     -1.10020959	     -4.82626809	     -4.52666258	    141.93781779	     84.10166757	      0.00000000	      0.00000000
      0.05000000	      2.10423876	     18.83259657	     78.52250405	      0.53919758	      0.97641530	     -1.03636680	      9.41535873	      3.95411076	      6.17652959	     24.39819950	      0.42582891	      7.06487097	      0.00000000	      0.00000000	    -29.81849052	      1.02887966	    -15.06127691	     35.74696747	      0.62390228	      0.77916868	      0.00000000	      0.00000000	    -31.25210950	     -2.48297232	      3.75240969	      1.37806912	     -8.43666416	     -1.77769596	    145.24892068	     87.91180527	      0.00000000	      0.00000000	     -1.33389500	     -3.88651891	     -4.73407128	    141.81570034	     84.41982130	      0.00000000	      0.00000000
      0.06000000	      3.99617908	     19.97073633	     78.76388192	      0.54029707	      0.98082077	     -1.03872966	      6.00547041	      5.36811496	      5.12689368	     22.74528659	      0.39698014	      6.94264025	      0.00000000	      0.00000000	    -29.79422592	     -1.50774861	    -14.98506438	     39.23991553	      0.68486572	     -2.48752529	      0.00000000	      0.00000000	    -32.56869347	     -0.57202341	      4.15079427	      1.67380517	     -9.17285002	     -2.00260203	    145.49600648	     87.91861823	      0.00000000	      0.00000000	     -1.60864597	     -3.08722024	     -4.84958376	    141.83689539	     84.60626273	      0.00000000	      0.00000000
